<svg width="68" height="59" viewBox="0 0 68 59" fill="none" xmlns="http://www.w3.org/2000/svg">
<path d="M32.016 35.0217C32.6025 34.5901 33.1508 34.1078 33.6608 33.6C33.0233 33.3842 32.3603 33.2319 31.6845 33.1304C31.7738 33.7651 31.8758 34.3997 32.016 35.0217Z" fill="#F9B233"/>
<path d="M33.6736 33.6C33.5716 32.94 33.5206 32.2672 33.5079 31.5818C32.8831 31.404 32.2328 31.2644 31.5698 31.1756C31.5698 31.8356 31.6208 32.483 31.6973 33.1304C32.3731 33.2319 33.0361 33.3842 33.6736 33.6Z" fill="#009FE3"/>
<path d="M34.4258 36.3673C34.8593 35.9865 35.2801 35.5929 35.6881 35.1868C35.1016 34.844 34.4768 34.5648 33.8138 34.3363C33.9668 35.0344 34.1708 35.7072 34.4258 36.3673Z" fill="#95C11F"/>
<path d="M33.8138 34.3363C34.464 34.5648 35.1016 34.844 35.6881 35.1867C36.1343 34.7298 36.5551 34.2601 36.9631 33.7651C36.2108 33.3208 35.4203 32.94 34.5915 32.6353C34.2983 32.9781 33.9923 33.2954 33.6735 33.6127C33.7118 33.8412 33.7628 34.0951 33.8138 34.3363Z" fill="#95C11F"/>
<path d="M33.801 34.2601C33.801 34.2855 33.8138 34.3109 33.8138 34.3363C33.8138 34.3109 33.801 34.2855 33.801 34.2601Z" fill="#009FE3"/>
<path d="M33.6735 33.6C33.7118 33.8158 33.75 34.0443 33.801 34.2601C33.75 34.0443 33.7118 33.8158 33.6735 33.6Z" fill="#F9B233"/>
<path d="M30.1162 33.0161C30.6517 33.0161 31.1745 33.0542 31.6973 33.1304C31.6208 32.4957 31.5825 31.8356 31.5697 31.1756C30.945 31.0867 30.2947 31.0359 29.6445 31.0359C24.5571 31.0359 20.0945 33.7397 17.6337 37.7763C18.6154 38.0428 19.6227 38.2205 20.6682 38.2967C22.6063 35.136 26.1126 33.0161 30.1162 33.0161Z" fill="#009FE3"/>
<path d="M33.5079 31.5818C33.5206 32.2672 33.5716 32.94 33.6736 33.6C38.047 35.0725 41.1836 39.1852 41.1836 44.0342C41.1836 50.1145 36.2364 55.0523 30.1163 55.0523C24.0089 55.0523 19.049 50.1145 19.049 44.0342C19.049 43.1203 19.1638 42.2317 19.3805 41.3812C18.2968 41.3051 17.2512 41.1528 16.2185 40.9243C15.8232 42.219 15.6064 43.6026 15.6064 45.0243C15.6064 52.742 21.8923 59 29.6445 59C37.3967 59 43.6826 52.742 43.6826 45.0243C43.6826 38.6394 39.3858 33.2573 33.5079 31.5818Z" fill="#009FE3"/>
<path d="M20.6683 38.3094C19.6228 38.2332 18.6155 38.0555 17.6337 37.7889C17.0345 38.7663 16.5627 39.8199 16.2184 40.9243C17.2385 41.1528 18.2967 41.3051 19.3805 41.3812C19.661 40.2769 20.0945 39.2487 20.6683 38.3094Z" fill="#95C11F"/>
<path d="M33.5079 31.4548C33.5079 27.1771 35.5097 23.3563 38.6462 20.8176C38.5825 19.6117 38.3912 18.4565 38.0725 17.3268C34.0944 20.5764 31.5698 25.5015 31.5698 31.0105C31.5698 31.0613 31.5698 31.1121 31.5698 31.1756C32.2328 31.2644 32.8831 31.404 33.5079 31.5818C33.5079 31.5437 33.5079 31.5056 33.5079 31.4548Z" fill="#F9B233"/>
<path d="M5.31688 21.7442C5.31688 12.5794 12.7886 5.14092 21.9943 5.14092C29.67 5.14092 36.1344 10.3072 38.0724 17.3268C38.9522 16.6033 39.9085 15.9686 40.9285 15.4228C38.5824 6.54992 30.4605 0 20.8085 0C9.32048 0 0 9.27905 0 20.716C0 30.5917 6.93617 38.8425 16.2184 40.9243C16.5627 39.8072 17.0344 38.7664 17.6337 37.7889C10.5318 35.8722 5.31688 29.4238 5.31688 21.7442Z" fill="#95C11F"/>
<path d="M20.8086 41.4193C25.2967 41.4193 29.4406 40.0103 32.8449 37.6112C32.5134 36.7735 32.2329 35.9103 32.0289 35.0217C29.2365 37.1162 25.7685 38.3602 21.9944 38.3602C21.5481 38.3602 21.1018 38.3475 20.6683 38.3094C20.0946 39.2487 19.6611 40.2769 19.3806 41.3812C19.8523 41.4066 20.3241 41.4193 20.8086 41.4193Z" fill="#95C11F"/>
<path d="M38.6462 20.8176C39.526 20.1067 40.495 19.4847 41.5405 19.0024C41.4385 17.7838 41.2345 16.5906 40.9285 15.4355C39.9085 15.9813 38.965 16.616 38.0724 17.3395C38.3785 18.4565 38.5825 19.6117 38.6462 20.8176Z" fill="#95C11F"/>
<path d="M41.6171 20.7033C41.6171 20.1321 41.5916 19.5609 41.5406 18.9897C40.4951 19.4847 39.5261 20.094 38.6463 20.8049C38.659 21.1095 38.6718 21.4268 38.6718 21.7315C38.6718 25.895 37.5498 29.1954 35.0125 32.1022C35.8412 32.4068 36.568 32.8384 37.3075 33.2954C40.2273 29.7539 41.6171 25.6538 41.6171 20.7033Z" fill="#95C11F"/>
<path d="M41.209 43.755C38.1107 42.1936 35.6754 39.5534 34.4259 36.3673C33.9159 36.8115 33.3931 37.2177 32.8321 37.6112C34.4131 41.5209 37.3585 44.7451 41.0688 46.6999C41.1835 46.0652 41.2473 45.4178 41.2473 44.7451C41.26 44.415 41.2473 44.085 41.209 43.755Z" fill="#F9B233"/>
<path d="M49.3438 13.3156C46.2965 13.3156 43.4276 14.0772 40.9286 15.4228C41.2346 16.5779 41.4386 17.7711 41.5406 18.9897C43.4404 18.0884 45.5697 17.5807 47.8138 17.5807C55.7189 17.5807 62.1196 23.7879 62.1196 31.4421C62.1196 39.0964 55.7062 45.3036 47.8138 45.3036C46.3857 45.3036 45.0214 45.1005 43.7209 44.7197C43.7464 45.0497 43.7592 45.3797 43.7592 45.7098C43.7592 46.4079 43.7082 47.0807 43.6062 47.7534C45.4039 48.3627 47.342 48.7055 49.3438 48.7055C59.1615 48.7055 67.1177 40.7846 67.1177 31.0105C67.1305 21.2491 59.1615 13.3156 49.3438 13.3156Z" fill="#F9B233"/>
<path d="M43.7208 44.745C42.841 44.4912 42.0123 44.1611 41.209 43.7549C41.2345 44.085 41.26 44.4023 41.26 44.745C41.26 45.4051 41.1962 46.0652 41.0815 46.6999C41.8848 47.1188 42.7263 47.4869 43.606 47.7788C43.708 47.1188 43.7591 46.4333 43.7591 45.7352C43.7591 45.3924 43.7463 45.0751 43.7208 44.745Z" fill="#F9B233"/>
<path d="M33.1126 34.1205C32.7683 34.4378 32.3986 34.7298 32.0161 35.0217C32.2201 35.9103 32.5006 36.7735 32.8321 37.6112C33.3803 37.2177 33.9158 36.8115 34.4259 36.3673C34.1709 35.7072 33.9668 35.0344 33.8138 34.3363C33.5843 34.2601 33.3548 34.184 33.1126 34.1205Z" fill="#F9B233"/>
<path d="M33.8139 34.3363C33.8139 34.3109 33.8011 34.2855 33.8011 34.2601C33.7501 34.0443 33.7119 33.8285 33.6736 33.6C33.4951 33.7777 33.3039 33.9555 33.1126 34.1205C33.3549 34.1839 33.5844 34.2601 33.8139 34.3363Z" fill="#F9B233"/>
</svg>
