<svg width="56" height="55" viewBox="0 0 56 55" fill="none" xmlns="http://www.w3.org/2000/svg">
<path fill-rule="evenodd" clip-rule="evenodd" d="M34.875 48.125C34.875 49.9484 34.1507 51.697 32.8614 52.9864C31.5721 54.2757 29.8234 55 28 55C26.1767 55 24.428 54.2757 23.1387 52.9864C21.8493 51.697 21.125 49.9484 21.125 48.125C21.125 46.3016 21.8493 44.553 23.1387 43.2636C24.428 41.9743 26.1767 41.25 28 41.25C29.8234 41.25 31.5721 41.9743 32.8614 43.2636C34.1507 44.553 34.875 46.3016 34.875 48.125ZM40.9938 17.7341C40.5104 17.2513 39.8551 16.9801 39.1719 16.9801C38.4887 16.9801 37.8334 17.2513 37.35 17.7341L30.5781 24.5059V2.57812C30.5781 1.89436 30.3065 1.23861 29.823 0.755115C29.3395 0.271623 28.6838 0 28 0C27.3163 0 26.6605 0.271623 26.177 0.755115C25.6935 1.23861 25.4219 1.89436 25.4219 2.57812V24.5059L18.65 17.7341C18.1613 17.2787 17.5149 17.0307 16.847 17.0425C16.1791 17.0543 15.5418 17.3249 15.0694 17.7972C14.5971 18.2696 14.3265 18.9069 14.3147 19.5748C14.3029 20.2427 14.5509 20.8891 15.0063 21.3778L26.1781 32.5497L28 34.375L29.8219 32.5531L40.9938 21.3812C41.2333 21.1418 41.4234 20.8575 41.5531 20.5446C41.6827 20.2317 41.7495 19.8964 41.7495 19.5577C41.7495 19.219 41.6827 18.8836 41.5531 18.5707C41.4234 18.2578 41.2333 17.9735 40.9938 17.7341Z" fill="white"/>
</svg>
